<svg width="1280" height="720" viewBox="0 0 1280 720" fill="none" xmlns="http://www.w3.org/2000/svg">
  <rect width="1280" height="720" fill="#08101F"/>
  <rect x="80" y="70" width="1120" height="580" rx="34" fill="#101827" stroke="#263653" stroke-width="3"/>
  <circle cx="220" cy="205" r="74" fill="#1D2A3E"/>
  <rect x="178" y="276" width="84" height="190" rx="40" fill="#24344F"/>
  <rect x="135" y="316" width="64" height="180" rx="30" fill="#1B2940"/>
  <rect x="240" y="316" width="64" height="180" rx="30" fill="#1B2940"/>
  <rect x="118" y="104" width="224" height="430" rx="18" stroke="#00D4FF" stroke-width="7"/>
  <rect x="118" y="70" width="232" height="48" rx="12" fill="#06111C"/>
  <rect x="118" y="70" width="8" height="48" fill="#00D4FF"/>
  <text x="140" y="101" font-family="Inter,Arial" font-size="22" font-weight="800" fill="white">person 94.8%</text>
  <rect x="484" y="300" width="436" height="152" rx="42" fill="#202B3F"/>
  <rect x="546" y="248" width="248" height="92" rx="28" fill="#2F3B54"/>
  <circle cx="586" cy="474" r="42" fill="#050914" stroke="#FFB100" stroke-width="14"/>
  <circle cx="822" cy="474" r="42" fill="#050914" stroke="#FFB100" stroke-width="14"/>
  <rect x="452" y="226" width="504" height="292" rx="20" stroke="#FFB100" stroke-width="7"/>
  <rect x="452" y="192" width="178" height="48" rx="12" fill="#06111C"/>
  <rect x="452" y="192" width="8" height="48" fill="#FFB100"/>
  <text x="474" y="223" font-family="Inter,Arial" font-size="22" font-weight="800" fill="white">car 89.1%</text>
  <rect x="986" y="270" width="102" height="176" rx="24" fill="#172033" stroke="#24FF9A" stroke-width="7"/>
  <rect x="1006" y="300" width="62" height="112" rx="10" fill="#101827"/>
  <rect x="964" y="236" width="192" height="48" rx="12" fill="#06111C"/>
  <rect x="964" y="236" width="8" height="48" fill="#24FF9A"/>
  <text x="986" y="267" font-family="Inter,Arial" font-size="22" font-weight="800" fill="white">cell phone 81.3%</text>
  <text x="80" y="690" font-family="Inter,Arial" font-size="26" font-weight="900" fill="#A8B5C7">YOLOv8 professional colored bounding-box preview</text>
</svg>
